<svg width="16" height="16" viewBox="0 0 16 16" fill="none" xmlns="http://www.w3.org/2000/svg">
<path fill-rule="evenodd" clip-rule="evenodd" d="M14.6667 5.33464V5.33333C14.6665 5.16293 14.6014 4.99259 14.4714 4.86258L13.8157 4.20686C13.8087 4.19955 13.8015 4.19239 13.7942 4.18538L11.8153 2.20644C11.8083 2.1991 11.8011 2.19195 11.7938 2.18498L11.1381 1.52925C10.8777 1.2689 10.4556 1.2689 10.1953 1.52925C9.93491 1.7896 9.93491 2.21171 10.1953 2.47206L10.2319 2.5087L3.68731 6.07849L3.13807 5.52925C2.87772 5.2689 2.45561 5.2689 2.19526 5.52925C1.93491 5.7896 1.93491 6.21171 2.19526 6.47206L5.39052 9.66732L2.86193 12.1959C2.60158 12.4563 2.60158 12.8784 2.86193 13.1387C3.12228 13.3991 3.54439 13.3991 3.80474 13.1387L6.33333 10.6101L9.5286 13.8054C9.78895 14.0657 10.2111 14.0657 10.4714 13.8054C10.7318 13.545 10.7318 13.1229 10.4714 12.8626L9.92217 12.3133L13.492 5.76874L13.5286 5.80539C13.7889 6.06574 14.2111 6.06574 14.4714 5.80539C14.6014 5.67538 14.6665 5.50503 14.6667 5.33464Z" fill="#C8CACF"/>
</svg>
