<svg width="14" height="14" viewBox="0 0 14 14" fill="none" xmlns="http://www.w3.org/2000/svg">
<path fill-rule="evenodd" clip-rule="evenodd" d="M11.194 11.1959C11.4543 10.9356 11.8764 10.9356 12.1368 11.1959L13.4701 12.5292C13.7305 12.7896 13.7305 13.2117 13.4701 13.4721C13.2098 13.7324 12.7876 13.7324 12.5273 13.4721L11.194 12.1387C10.9336 11.8784 10.9336 11.4563 11.194 11.1959Z" fill="#737682"/>
<path fill-rule="evenodd" clip-rule="evenodd" d="M6.33203 11.0007C8.90936 11.0007 10.9987 8.91131 10.9987 6.33398C10.9987 3.75666 8.90936 1.66732 6.33203 1.66732C3.7547 1.66732 1.66536 3.75666 1.66536 6.33398C1.66536 8.91131 3.7547 11.0007 6.33203 11.0007ZM12.332 6.33398C12.332 9.64769 9.64574 12.334 6.33203 12.334C3.01832 12.334 0.332031 9.64769 0.332031 6.33398C0.332031 3.02028 3.01832 0.333984 6.33203 0.333984C9.64574 0.333984 12.332 3.02028 12.332 6.33398Z" fill="#737682"/>
</svg>
