<svg width="22" height="22" viewBox="0 0 22 22" fill="none" xmlns="http://www.w3.org/2000/svg">
<path fill-rule="evenodd" clip-rule="evenodd" d="M11 22C17.0751 22 22 17.0751 22 11C22 4.92487 17.0751 0 11 0C4.92487 0 0 4.92487 0 11C0 17.0751 4.92487 22 11 22ZM15.7241 8.68966C16.105 8.28973 16.0896 7.65675 15.6896 7.27586C15.2897 6.89498 14.6567 6.91042 14.2758 7.31035L9.32477 12.509L7.75924 10.6825C7.39982 10.2632 6.76852 10.2147 6.3492 10.5741C5.92987 10.9335 5.88131 11.5648 6.24073 11.9841L8.52645 14.6508C8.71048 14.8655 8.97682 14.9923 9.25951 14.9997C9.5422 15.0071 9.81481 14.8944 10.0098 14.6897L15.7241 8.68966Z" fill="#56CA76"/>
</svg>
