<svg width="22" height="22" viewBox="0 0 22 22" fill="none" xmlns="http://www.w3.org/2000/svg">
<path fill-rule="evenodd" clip-rule="evenodd" d="M10.0013 15.1243C9.75395 15.1243 9.51118 15.1911 9.29857 15.3175L6.11245 18.302L6.43053 16.7808C6.51527 16.3755 6.41287 15.9536 6.15177 15.6323C5.89067 15.3109 5.49868 15.1243 5.08463 15.1243H4.58463C3.31898 15.1243 2.29297 14.0983 2.29297 12.8327V4.58268C2.29297 3.31703 3.31898 2.29102 4.58464 2.29102H17.418C18.6836 2.29102 19.7096 3.31703 19.7096 4.58268V12.5308L20.7488 14.3677C20.9644 13.9008 21.0846 13.3808 21.0846 12.8327V4.58268C21.0846 2.55764 19.443 0.916016 17.418 0.916016H4.58464C2.55959 0.916016 0.917969 2.55764 0.917969 4.58268V12.8327C0.917969 14.5535 2.10342 15.9975 3.70225 16.3925C3.98488 16.4623 4.28043 16.4993 4.58463 16.4993H5.08463L4.55314 19.0413C4.38984 19.8223 5.23309 20.4246 5.91888 20.0168L10.0013 16.4993H11.0479L11.8257 15.1243H10.0013Z" fill="#26282C"/>
<path fill-rule="evenodd" clip-rule="evenodd" d="M20.8976 21.9993H12.1024C11.257 21.9993 10.7272 21.0682 11.1468 20.3201L15.5444 12.4811C15.9671 11.7277 17.0329 11.7277 17.4556 12.4811L21.8532 20.3201C22.2728 21.0682 21.743 21.9993 20.8976 21.9993ZM16.5 14.666C16.1203 14.666 15.8125 14.9738 15.8125 15.3535V17.1868C15.8125 17.5665 16.1203 17.8743 16.5 17.8743C16.8797 17.8743 17.1875 17.5665 17.1875 17.1868V15.3535C17.1875 14.9738 16.8797 14.666 16.5 14.666ZM16.5 18.791C16.1203 18.791 15.8125 19.0988 15.8125 19.4785C15.8125 19.8582 16.1203 20.166 16.5 20.166C16.8797 20.166 17.1875 19.8582 17.1875 19.4785C17.1875 19.0988 16.8797 18.791 16.5 18.791Z" fill="#26282C"/>
</svg>
