<svg width="18" height="12" viewBox="0 0 18 12" fill="none" xmlns="http://www.w3.org/2000/svg">
<path fill-rule="evenodd" clip-rule="evenodd" d="M17.3346 0.999349C17.3346 1.45959 16.9615 1.83268 16.5013 1.83268H1.5013C1.04106 1.83268 0.667969 1.45959 0.667969 0.999349C0.667969 0.539112 1.04106 0.166016 1.5013 0.166016H16.5013C16.9615 0.166016 17.3346 0.539112 17.3346 0.999349ZM17.3346 5.99935C17.3346 6.45959 16.9615 6.83268 16.5013 6.83268H1.5013C1.04106 6.83268 0.667969 6.45959 0.667969 5.99935C0.667969 5.53911 1.04106 5.16602 1.5013 5.16602H16.5013C16.9615 5.16602 17.3346 5.53911 17.3346 5.99935ZM17.3346 10.9993C17.3346 11.4596 16.9615 11.8327 16.5013 11.8327H1.5013C1.04106 11.8327 0.667969 11.4596 0.667969 10.9993C0.667969 10.5391 1.04106 10.166 1.5013 10.166H16.5013C16.9615 10.166 17.3346 10.5391 17.3346 10.9993Z" fill="#26282C"/>
</svg>
