<svg width="20" height="16" viewBox="0 0 20 16" fill="none" xmlns="http://www.w3.org/2000/svg">
<path fill-rule="evenodd" clip-rule="evenodd" d="M8.18038 2.11612L9.48093 3.41667H15.832C16.9826 3.41667 17.9154 4.34941 17.9154 5.5H2.08203V3.83333C2.08203 2.68274 3.01477 1.75 4.16536 1.75H7.2965C7.62802 1.75 7.94596 1.8817 8.18038 2.11612ZM2.08203 6.33333V12.1667C2.08203 13.3173 3.01477 14.25 4.16536 14.25H15.832C16.9826 14.25 17.9154 13.3173 17.9154 12.1667V6.33333H2.08203ZM0.832031 3.83333C0.832031 1.99238 2.32442 0.5 4.16536 0.5H7.2965C7.95954 0.5 8.59542 0.763392 9.06426 1.23223L9.9987 2.16667H15.832C17.673 2.16667 19.1654 3.65905 19.1654 5.5V12.1667C19.1654 14.0076 17.673 15.5 15.832 15.5H4.16536C2.32442 15.5 0.832031 14.0076 0.832031 12.1667V3.83333Z" fill="#26282C"/>
</svg>
