<svg width="20" height="22" viewBox="0 0 20 22" fill="none" xmlns="http://www.w3.org/2000/svg">
<path fill-rule="evenodd" clip-rule="evenodd" d="M6 3V4H1C0.447715 4 0 4.44772 0 5C0 5.55228 0.447716 6 1 6H2V16C2 19.3137 4.68629 22 8 22H12C15.3137 22 18 19.3137 18 16V6H19C19.5523 6 20 5.55228 20 5C20 4.44772 19.5523 4 19 4H14V3C14 1.34315 12.6569 0 11 0H9C7.34315 0 6 1.34315 6 3ZM11 2H9C8.44772 2 8 2.44772 8 3V4H12V3C12 2.44772 11.5523 2 11 2ZM8 9C8.55229 9 9 9.44771 9 10V16C9 16.5523 8.55229 17 8 17C7.44772 17 7 16.5523 7 16V10C7 9.44771 7.44772 9 8 9ZM13 10C13 9.44771 12.5523 9 12 9C11.4477 9 11 9.44771 11 10V16C11 16.5523 11.4477 17 12 17C12.5523 17 13 16.5523 13 16V10Z" fill="white"/>
</svg>
