<svg width="20" height="20" viewBox="0 0 20 20" fill="none" xmlns="http://www.w3.org/2000/svg">
<g clip-path="url(#clip0_13137_120476)">
<path d="M15.5431 0.538926L14.4571 1.62492C14.0666 2.01545 14.0666 2.64861 14.4571 3.03914L15.8878 4.46985C16.2783 4.86037 16.9115 4.86038 17.302 4.46985L18.388 3.38385C18.7786 2.99333 18.7786 2.36016 18.388 1.96964L16.9573 0.538927C16.5668 0.148402 15.9336 0.148402 15.5431 0.538926Z" fill="#30A960"/>
<path d="M13.6939 3.87312C13.3034 3.4826 12.6702 3.4826 12.2797 3.87312L6.77016 9.38268L5.66388 12.7015C5.53359 13.0924 5.90546 13.4642 6.29634 13.334L9.61516 12.2277L15.1247 6.71812C15.5152 6.3276 15.5152 5.69443 15.1247 5.30391L13.6939 3.87312Z" fill="#30A960"/>
<path d="M8.33464 3.16602H3.66797C2.5634 3.16602 1.66797 4.06145 1.66797 5.16602V15.3327C1.66797 16.4373 2.5634 17.3327 3.66797 17.3327H13.8346C14.9392 17.3327 15.8346 16.4373 15.8346 15.3327V10.666" stroke="#30A960" stroke-width="2" stroke-linecap="round" stroke-linejoin="round"/>
</g>
<defs>
<clipPath id="clip0_13137_120476">
<rect width="20" height="20" fill="white"/>
</clipPath>
</defs>
</svg>
