<svg width="20" height="21" viewBox="0 0 20 21" fill="none" xmlns="http://www.w3.org/2000/svg">
<path d="M6 9.75C6 9.33579 6.33579 9 6.75 9H13.25C13.6642 9 14 9.33579 14 9.75C14 10.1642 13.6642 10.5 13.25 10.5H6.75C6.33579 10.5 6 10.1642 6 9.75Z" fill="#26282C"/>
<path fill-rule="evenodd" clip-rule="evenodd" d="M1 6.73244C0.402199 6.38663 0 5.74028 0 5V2C0 0.89543 0.895431 0 2 0H18C19.1046 0 20 0.895431 20 2V5C20 5.74028 19.5978 6.38663 19 6.73244V17C19 19.2091 17.2091 21 15 21H5C2.79086 21 1 19.2091 1 17V6.73244ZM1.5 2C1.5 1.72386 1.72386 1.5 2 1.5H18C18.2761 1.5 18.5 1.72386 18.5 2V5C18.5 5.27614 18.2761 5.5 18 5.5H2C1.72386 5.5 1.5 5.27614 1.5 5V2ZM15 19.5C16.3807 19.5 17.5 18.3807 17.5 17V7H2.5V17C2.5 18.3807 3.61929 19.5 5 19.5H15Z" fill="#26282C"/>
</svg>
