<svg width="23" height="22" viewBox="0 0 23 22" fill="none" xmlns="http://www.w3.org/2000/svg">
<path fill-rule="evenodd" clip-rule="evenodd" d="M2.5 0C1.39543 0 0.5 0.89543 0.5 2V3C0.5 4.10457 1.39543 5 2.5 5H18.5C19.6046 5 20.5 4.10457 20.5 3V2C20.5 0.895431 19.6046 0 18.5 0H2.5ZM1.5 8C1.5 7.44772 1.94772 7 2.5 7H18.5C19.0523 7 19.5 7.44772 19.5 8V10.8135C18.8699 10.61 18.1978 10.5 17.5 10.5C13.9101 10.5 11 13.4101 11 17C11 18.5085 11.5139 19.897 12.3762 21H5.5C3.29086 21 1.5 19.2091 1.5 17V8ZM6.5 10C6.5 9.44772 6.94772 9 7.5 9H13.5C14.0523 9 14.5 9.44772 14.5 10C14.5 10.5523 14.0523 11 13.5 11H7.5C6.94772 11 6.5 10.5523 6.5 10ZM22.5 17C22.5 19.7614 20.2614 22 17.5 22C14.7386 22 12.5 19.7614 12.5 17C12.5 14.2386 14.7386 12 17.5 12C20.2614 12 22.5 14.2386 22.5 17ZM19.9749 14.5251C20.2678 14.818 20.2678 15.2929 19.9749 15.5858L18.5607 17L19.9749 18.4142C20.2678 18.7071 20.2678 19.182 19.9749 19.4749C19.682 19.7677 19.2071 19.7677 18.9142 19.4749L17.5 18.0606L16.0858 19.4749C15.7929 19.7677 15.318 19.7677 15.0251 19.4749C14.7322 19.182 14.7322 18.7071 15.0251 18.4142L16.4393 17L15.0251 15.5858C14.7322 15.2929 14.7322 14.818 15.0251 14.5251C15.318 14.2322 15.7929 14.2322 16.0858 14.5251L17.5 15.9393L18.9142 14.5251C19.2071 14.2322 19.682 14.2322 19.9749 14.5251Z" fill="#26282C"/>
</svg>
