<svg width="4" height="18" viewBox="0 0 4 18" fill="none" xmlns="http://www.w3.org/2000/svg">
<path d="M2 4C0.895431 4 5.63677e-07 3.10457 6.11959e-07 2C6.60241e-07 0.89543 0.895431 -4.82823e-08 2 0C3.10457 4.82823e-08 4 0.89543 4 2C4 3.10457 3.10457 4 2 4Z" fill="#26282C"/>
<path d="M2 11C0.895431 11 2.57701e-07 10.1046 3.05983e-07 9C3.54265e-07 7.89543 0.895431 7 2 7C3.10457 7 4 7.89543 4 9C4 10.1046 3.10457 11 2 11Z" fill="#26282C"/>
<path d="M2 18C0.89543 18 -4.82823e-08 17.1046 0 16C4.82823e-08 14.8954 0.89543 14 2 14C3.10457 14 4 14.8954 4 16C4 17.1046 3.10457 18 2 18Z" fill="#26282C"/>
</svg>
